<svg id="Layer_1" enable-background="new 0 0 66 66" height="512" viewBox="0 0 66 66" width="512" xmlns="http://www.w3.org/2000/svg"><g><g><path d="m18.02 16.74c0-.53-.43-.96-.96-.96h-9.3c-.53 0-.96.43-.96.96v9.3c0 .53.43.96.96.96h9.3c.53 0 .96-.43.96-.96zm-1.92 8.35h-7.38v-7.38h7.38z"/></g><g><path d="m18.02 32.6c0-.53-.43-.96-.96-.96h-9.3c-.53 0-.96.43-.96.96v9.3c0 .53.43.96.96.96h9.3c.53 0 .96-.43.96-.96zm-1.92 8.35h-7.38v-7.38h7.38z"/></g><g><path d="m17.06 47.5h-9.3c-.53 0-.96.43-.96.96v9.3c0 .53.43.96.96.96h9.3c.53 0 .96-.43.96-.96v-9.3c0-.53-.43-.96-.96-.96zm-.96 9.3h-7.38v-7.38h7.38z"/></g><g><path d="m35.82 18.25h-13.46c-.53 0-.96.43-.96.96s.43.96.96.96h13.46c.53 0 .96-.43.96-.96s-.43-.96-.96-.96z"/></g><g><path d="m22.36 24.54h8.62c.53 0 .96-.43.96-.96s-.43-.96-.96-.96h-8.62c-.53 0-.96.43-.96.96s.43.96.96.96z"/></g><g><path d="m36.78 35.07c0-.53-.43-.96-.96-.96h-13.46c-.53 0-.96.43-.96.96s.43.96.96.96h13.46c.53 0 .96-.43.96-.96z"/></g><g><path d="m30.97 38.48h-8.62c-.53 0-.96.43-.96.96s.43.96.96.96h8.62c.53 0 .96-.43.96-.96s-.42-.96-.96-.96z"/></g><g><path d="m30.97 49.97h-8.62c-.53 0-.96.43-.96.96s.43.96.96.96h8.62c.53 0 .96-.43.96-.96s-.42-.96-.96-.96z"/></g><g><path d="m30.97 54.33h-8.62c-.53 0-.96.43-.96.96s.43.96.96.96h8.62c.53 0 .96-.43.96-.96.01-.53-.42-.96-.96-.96z"/></g><g><path d="m64.37 22.56c-.15-1.55-.89-2.94-2.08-3.93-1.2-.99-2.7-1.46-4.25-1.31s-2.94.89-3.93 2.08l-17.63 21.29c-.07.09-.12.19-.16.3-.01.03-.02.06-.03.09s-.02.07-.03.1l-1.14 9c-.04.33.09.65.34.86.17.14.39.22.61.22.1 0 .2-.02.3-.05l8.63-2.81c.02-.01.04-.02.07-.03s.05-.02.08-.04c.11-.06.22-.13.3-.23l17.62-21.29c.98-1.19 1.44-2.7 1.3-4.25zm-19.8 23.58-2.26-1.87 15.22-18.39 2.26 1.87zm-6-4.97 15.22-18.39 2.26 1.87-15.22 18.39zm-.62 1.98 4.79 3.96-5.52 1.8zm23.63-17.56-.56.68-6-4.97.56-.68c.66-.8 1.6-1.3 2.63-1.39 1.04-.1 2.05.21 2.85.88.8.66 1.3 1.6 1.39 2.63.1 1.04-.21 2.05-.87 2.85z"/></g><g><path d="m48.94 47.43c-.53 0-.96.43-.96.96v9.38c0 2.65-2.15 4.8-4.8 4.8h-34.85c-2.65 0-4.8-2.15-4.8-4.8v-49.55c0-2.65 2.15-4.8 4.8-4.8h27.81v8.96c0 1.59 1.29 2.88 2.88 2.88h8.96v5.86c0 .53.43.96.96.96s.96-.43.96-.96v-6.82c0-.25-.1-.5-.28-.68l-11.84-11.84c-.18-.18-.43-.28-.68-.28h-28.77c-3.71 0-6.72 3.02-6.72 6.72v49.56c0 3.71 3.02 6.72 6.72 6.72h34.85c3.71 0 6.72-3.02 6.72-6.72v-9.38c0-.54-.43-.97-.96-.97zm-10.88-35.05v-7.6l8.56 8.56h-7.6c-.53 0-.96-.43-.96-.96z"/></g></g></svg>