<svg id="Layer_1" enable-background="new 0 0 512 512" viewBox="0 0 512 512" xmlns="http://www.w3.org/2000/svg"><path d="m285.218 472.983c0 2.761-2.239 5-5 5h-41.438c-2.761 0-5-2.239-5-5s2.239-5 5-5h41.438c2.761 0 5 2.239 5 5zm-163.024-322.925c0-2.761-2.239-5-5-5h-64.587c-2.761 0-5 2.239-5 5s2.239 5 5 5h64.586c2.762 0 5.001-2.239 5.001-5zm-69.587-23.158h124.256c2.761 0 5-2.239 5-5s-2.239-5-5-5h-124.256c-2.761 0-5 2.239-5 5s2.239 5 5 5zm0-28.159h124.256c2.761 0 5-2.239 5-5s-2.239-5-5-5h-124.256c-2.761 0-5 2.239-5 5s2.239 5 5 5zm448.392 269.898v81.927c0 13.785-11.215 25-25 25h-82.023c-8.506 15.55-24.953 25.434-42.769 25.434h-190.415c-26.863 0-48.718-21.855-48.718-48.718v-21.433c-37.118-2.578-66.534-33.579-66.534-71.34s29.416-68.762 66.534-71.34v-98.48h-70.482c-16.869 0-30.592-13.724-30.592-30.592v-74.395c0-16.869 13.724-30.592 30.592-30.592h70.807c2.81-24.182 23.562-43.11 48.393-43.11h190.415c26.863 0 48.718 21.855 48.718 48.718v71.453l11.449 42.727 20.882.185c2.246.02 4.204 1.536 4.785 3.706l7.521 28.069c.582 2.17-.356 4.461-2.292 5.602l-17.992 10.601 15.656 58.43c1.165 4.345.561 8.895-1.7 12.811-2.261 3.917-5.899 6.714-10.246 7.878-1.458.391-2.925.578-4.368.578-7.458 0-14.301-4.984-16.322-12.522l-1.74-6.493c-1.816-1.111-3.695-2.17-5.635-3.176v64.073h76.077c13.785-.001 24.999 11.214 24.999 24.999zm-111.074-93.596c-4.085-1.596-8.371-2.997-12.831-4.197v72.794h12.831zm-44.162 68.596h21.331v-75.089c-22.792-4.402-49.226-4.056-76.289 1.403l-13.846 3.71 25.881 44.827c2.448 4.24 3.095 9.192 1.821 13.946s-4.31 8.719-8.55 11.167c-2.888 1.667-6.044 2.459-9.161 2.459-6.359 0-12.551-3.297-15.952-9.188l-30.807-53.359-1.877.503c-3.098.83-6.2 1.228-9.24 1.229-15.834.001-30.086-10.782-34.548-27.434-2.567-9.582-1.398-19.466 3.292-27.832 4.675-8.339 12.32-14.29 21.527-16.757l52.49-14.065c61.272-20.612 85.512-54.926 92.986-68.452l-1.74-6.494c-1.165-4.346-.561-8.896 1.7-12.812.656-1.136 1.44-2.165 2.312-3.101v-47.469c0-9.374-7.626-17-17-17h-188.187c-6.906 0-12.953 4.229-15.587 10.279h41.56c16.868 0 30.592 13.724 30.592 30.592v74.395c0 16.868-13.724 30.592-30.592 30.592h-16.648v35.329c0 1.934-1.116 3.695-2.865 4.521-.68.322-1.41.479-2.134.479-1.138 0-2.265-.388-3.177-1.138l-18.149-14.926v79.659c25.659 10.878 43.703 36.32 43.703 65.898s-18.044 55.02-43.703 65.898v2.559c0 9.374 7.626 17 17 17h158.857v-76.327c0-13.787 11.214-25.002 25-25.002zm-223.689-148.463v92.993c4.395.305 8.688.989 12.832 2.056v-84.496zm128.118 85.659 29.467 51.038c2.311 4.002 7.449 5.378 11.453 3.069 1.926-1.112 3.308-2.922 3.89-5.095.583-2.173.291-4.431-.822-6.358l-27.22-47.147zm33.346-19.287-13.793-51.476-47.812 12.811c-6.581 1.763-12.047 6.021-15.393 11.988-3.407 6.078-4.244 13.306-2.355 20.354 3.868 14.432 17.719 22.837 31.541 19.134zm118.455 7.881-33.597-125.387c-17.762 26.2-49.916 49.106-89.081 63.105l13.973 52.148c40.814-7.433 80.191-3.666 108.705 10.134zm28.282 13.65-44.217-165.023c-.984-3.671-4.774-5.857-8.442-4.874-1.766.473-3.248 1.616-4.173 3.219s-1.174 3.458-.701 5.223l44.217 165.023c.984 3.671 4.771 5.857 8.442 4.874 1.766-.473 3.248-1.616 4.173-3.219.925-1.602 1.174-3.457.701-5.223zm-16.216-99.156 7.533 28.114 12.326-7.262-5.553-20.725zm-291.565-129.813h13.27c3.024-11.679 13.721-20.279 26.141-20.279h188.188c14.888 0 27 12.112 27 27v42.287c4.689-.65 9.297.725 12.831 3.54v-46.94c0-21.349-17.369-38.718-38.718-38.718h-190.414c-19.338 0-35.552 14.447-38.298 33.11zm-80.902 125.579h75.602c1.159 0 2.281.402 3.176 1.138l40.861 33.604v-29.743c0-2.761 2.239-5 5-5h21.648c11.354 0 20.592-9.237 20.592-20.592v-74.394c0-11.354-9.237-20.592-20.592-20.592h-146.287c-11.354 0-20.592 9.238-20.592 20.592v74.395c-.001 11.354 9.237 20.592 20.592 20.592zm75.482 241.354c33.93 0 61.535-27.604 61.535-61.534s-27.604-61.534-61.535-61.534-61.534 27.604-61.534 61.534 27.604 61.534 61.534 61.534zm265.026 54.523h-36.338c-12.284 0-22.519-8.907-24.604-20.601h-159.252c-14.612 0-26.542-11.67-26.979-26.177-4.15 1.07-8.45 1.755-12.852 2.061v21.433c0 21.349 17.369 38.718 38.718 38.718h190.415c12.228 0 23.648-5.866 30.892-15.434zm108.899-106.927c0-8.271-6.729-15-15-15h-130.236c-8.271 0-15 6.729-15 15v81.927c0 8.271 6.729 15 15 15h130.237c8.271 0 15-6.729 15-15v-81.927zm-52.03 40.964c0 4.334-2.248 8.219-6.011 10.392l-32.155 18.564c-1.884 1.088-3.95 1.632-6.015 1.632-2.059 0-4.116-.541-5.99-1.623-3.753-2.167-5.995-6.056-5.995-10.401v-37.129c0-4.345 2.241-8.233 5.994-10.401 3.754-2.167 8.242-2.164 12.005.008l32.155 18.565c3.765 2.173 6.012 6.058 6.012 10.393zm-10 0c0-.429-.131-1.225-1.01-1.732l-32.155-18.564c-.363-.209-.706-.284-1.008-.284-.429 0-.779.15-.997.276-.372.214-.995.726-.995 1.74v37.129c0 1.015.623 1.526.995 1.741s1.125.499 2.005-.009l32.155-18.564c.879-.509 1.01-1.305 1.01-1.733zm30.461-222.771c.599 2.234 2.619 3.708 4.827 3.708.428 0 .864-.056 1.297-.172l31.74-8.505c2.667-.715 4.25-3.457 3.536-6.124-.715-2.668-3.456-4.25-6.124-3.536l-31.74 8.505c-2.668.715-4.251 3.457-3.536 6.124zm-22.398-29.19c.788.455 1.647.671 2.495.671 1.728 0 3.409-.897 4.335-2.501l16.43-28.458c1.381-2.392.562-5.45-1.83-6.83-2.393-1.381-5.45-.561-6.83 1.83l-16.43 28.458c-1.381 2.392-.561 5.45 1.83 6.83zm24.425 63.837c-2.393-1.381-5.45-.562-6.83 1.83-1.381 2.392-.562 5.45 1.83 6.83l28.458 16.43c.788.455 1.647.671 2.495.671 1.728 0 3.409-.897 4.335-2.501 1.381-2.392.562-5.45-1.83-6.83zm-344.383 178.308c-2.362 0-4.652-1.012-6.282-2.775-1.391-1.504-3.276-3.402-5.459-5.6-13.772-13.861-26.134-27.201-26.134-38.043 0-13.11 9.989-23.776 22.267-23.776 5.918 0 11.507 2.54 15.609 6.83 4.102-4.291 9.69-6.83 15.608-6.83 12.278 0 22.268 10.666 22.268 23.776 0 10.842-12.362 24.182-26.134 38.043-2.183 2.197-4.069 4.095-5.459 5.6-1.631 1.764-3.921 2.775-6.284 2.775zm-4.647-15.423c1.755 1.767 3.324 3.346 4.647 4.732 1.324-1.386 2.893-2.965 4.648-4.732 8.118-8.17 23.228-23.378 23.228-30.995 0-7.596-5.503-13.776-12.268-13.776-4.646 0-8.975 3.038-11.025 7.738-.795 1.822-2.595 3-4.583 3-1.988 0-3.788-1.178-4.583-3.001-2.05-4.701-6.378-7.738-11.025-7.738-6.764 0-12.267 6.18-12.267 13.776 0 7.618 15.11 22.826 23.228 30.996z"/></svg>