<svg version="1.1" id="Capa_1" xmlns="http://www.w3.org/2000/svg" xmlns:xlink="http://www.w3.org/1999/xlink" x="0px" y="0px" viewBox="0 0 512 512" style="enable-background:new 0 0 512 512;" xml:space="preserve">
<g>
	<path style="fill:none;stroke:#000000;stroke-width:15;stroke-linecap:round;stroke-linejoin:round;stroke-miterlimit:10;" d="&#10;&#9;&#9;M167.91,23h320.28c9.01,0,16.31,7.31,16.31,16.32v433.36c0,9.01-7.3,16.32-16.31,16.32H23.81c-9.01,0-16.31-7.31-16.31-16.32&#10;&#9;&#9;v-50.89 M7.5,386.79V39.32C7.5,30.31,14.8,23,23.81,23h109.1"/>
	
		<line style="fill:none;stroke:#000000;stroke-width:15;stroke-linecap:round;stroke-linejoin:round;stroke-miterlimit:10;" x1="501.79" y1="86.86" x2="10.21" y2="86.86"/>
	
		<line style="fill:none;stroke:#000000;stroke-width:15;stroke-linecap:round;stroke-linejoin:round;stroke-miterlimit:10;" x1="110.31" y1="55.038" x2="110.31" y2="55.038"/>
	
		<line style="fill:none;stroke:#000000;stroke-width:15;stroke-linecap:round;stroke-linejoin:round;stroke-miterlimit:10;" x1="76.19" y1="55.038" x2="76.19" y2="55.038"/>
	
		<line style="fill:none;stroke:#000000;stroke-width:15;stroke-linecap:round;stroke-linejoin:round;stroke-miterlimit:10;" x1="42.07" y1="55.038" x2="42.07" y2="55.038"/>
	<g>
		<path style="fill:none;stroke:#000000;stroke-width:15;stroke-linecap:round;stroke-linejoin:round;stroke-miterlimit:10;" d="&#10;&#9;&#9;&#9;M262.18,119.15h-0.01c-2.03-0.19-4.09-0.29-6.17-0.29c-36.49,0-66.07,29.58-66.07,66.07S219.51,251,256,251&#10;&#9;&#9;&#9;s66.07-29.58,66.07-66.07c0-21.41-10.18-40.44-25.97-52.51"/>
		<g>
			<g>
				<path style="fill:none;stroke:#000000;stroke-width:15;stroke-linecap:round;stroke-linejoin:round;stroke-miterlimit:10;" d="&#10;&#9;&#9;&#9;&#9;&#9;M268.796,204.16c0.494,4.037,1.466,11.971,1.466,11.971l0,0l21.7,3.915c4.88,0.88,9.232,3.098,12.707,6.233"/>
				<path style="fill:none;stroke:#000000;stroke-width:15;stroke-linecap:round;stroke-linejoin:round;stroke-miterlimit:10;" d="&#10;&#9;&#9;&#9;&#9;&#9;M207.329,226.278c3.474-3.135,7.826-5.351,12.705-6.231l21.699-3.915l0,0l0,0l0,0c0,0,0.952-7.777,1.466-11.971"/>
			</g>
			<path style="fill:none;stroke:#000000;stroke-width:15;stroke-linecap:round;stroke-linejoin:round;stroke-miterlimit:10;" d="&#10;&#9;&#9;&#9;&#9;M249.03,205.232L249.03,205.232c4.407,2.172,9.568,2.174,13.972,0.007l0,0c9.951-4.896,16.668-14.59,17.766-25.641l0.686-6.9&#10;&#9;&#9;&#9;&#9;c1.498-15.077-10.335-28.167-25.469-28.175h0c-15.135-0.008-26.954,13.07-25.44,28.149l0.693,6.9&#10;&#9;&#9;&#9;&#9;C232.346,190.624,239.073,200.325,249.03,205.232z"/>
		</g>
	</g>
	<g>
		<path style="fill:none;stroke:#000000;stroke-width:15;stroke-linecap:round;stroke-linejoin:round;stroke-miterlimit:10;" d="&#10;&#9;&#9;&#9;M273.5,331.25h187.01c3.65,0,6.61-2.96,6.61-6.62v-32.97c0-3.65-2.96-6.61-6.61-6.61H193.26c-3.65,0-6.62,2.96-6.62,6.61v32.97&#10;&#9;&#9;&#9;c0,3.66,2.97,6.62,6.62,6.62h45.24"/>
		<path style="fill:none;stroke:#000000;stroke-width:15;stroke-linecap:round;stroke-linejoin:round;stroke-miterlimit:10;" d="&#10;&#9;&#9;&#9;M460.507,435.526H193.259c-3.653,0-6.615-2.962-6.615-6.615v-32.973c0-3.653,2.962-6.615,6.615-6.615h267.249&#10;&#9;&#9;&#9;c3.653,0,6.615,2.962,6.615,6.615v32.973C467.122,432.564,464.161,435.526,460.507,435.526z"/>
		<g>
			<path style="fill:none;stroke:#000000;stroke-width:15;stroke-linecap:round;stroke-linejoin:round;stroke-miterlimit:10;" d="&#10;&#9;&#9;&#9;&#9;M113.428,451.092H68.657c-4.418,0-8-3.582-8-8v-23.668c0-4.418,3.582-8,8-8h44.771c4.418,0,8,3.582,8,8v23.668&#10;&#9;&#9;&#9;&#9;C121.428,447.511,117.846,451.092,113.428,451.092z"/>
			<path style="fill:none;stroke:#000000;stroke-width:15;stroke-linecap:round;stroke-linejoin:round;stroke-miterlimit:10;" d="&#10;&#9;&#9;&#9;&#9;M109.035,411.424H73.05v-19.676c0-9.937,8.055-17.992,17.992-17.992h0c9.937,0,17.992,8.055,17.992,17.992V411.424z"/>
		</g>
		<g>
			<path style="fill:none;stroke:#000000;stroke-width:15;stroke-linecap:round;stroke-linejoin:round;stroke-miterlimit:10;" d="&#10;&#9;&#9;&#9;&#9;M127.207,344.063H54.878c-5.523,0-10-4.477-10-10v-51.83c0-5.523,4.477-10,10-10h72.329c5.523,0,10,4.477,10,10v51.83&#10;&#9;&#9;&#9;&#9;C137.207,339.586,132.73,344.063,127.207,344.063z"/>
			<path style="fill:none;stroke:#000000;stroke-width:15;stroke-linecap:round;stroke-linejoin:round;stroke-miterlimit:10;" d="&#10;&#9;&#9;&#9;&#9;M53.11,278.638l32.406,25.211c3.25,2.529,7.802,2.529,11.053,0l32.777-25.5"/>
		</g>
	</g>
</g>
<g>
</g>
<g>
</g>
<g>
</g>
<g>
</g>
<g>
</g>
<g>
</g>
<g>
</g>
<g>
</g>
<g>
</g>
<g>
</g>
<g>
</g>
<g>
</g>
<g>
</g>
<g>
</g>
<g>
</g>
</svg>